<svg width="590" height="362" viewBox="0 0 590 362" fill="none" xmlns="http://www.w3.org/2000/svg">
<g clip-path="url(#clip0)">
<rect width="589.827" height="361.238" fill="white"/>
<path d="M291.53 361.239C289.583 361.239 287.65 360.729 285.943 359.746L268.16 349.218C265.504 347.733 266.8 347.207 267.676 346.905C271.218 345.665 271.936 345.385 275.716 343.238C276.114 343.011 276.634 343.091 277.04 343.331L290.702 351.438C291.195 351.705 291.895 351.705 292.352 351.438L345.619 320.691C346.112 320.411 346.432 319.838 346.432 319.251V257.785C346.432 257.172 346.112 256.625 345.608 256.318L292.363 225.598C291.87 225.305 291.216 225.305 290.723 225.598L237.488 256.318C236.972 256.612 236.644 257.185 236.644 257.772V319.238C236.644 319.825 236.964 320.385 237.471 320.665L252.058 329.091C259.978 333.051 264.818 328.385 264.818 323.691V263.025C264.818 262.158 265.498 261.492 266.364 261.492H273.111C273.951 261.492 274.644 262.158 274.644 263.025V323.718C274.644 334.278 268.884 340.345 258.871 340.345C255.791 340.345 253.364 340.345 246.591 337.011L232.618 328.958C230.919 327.967 229.509 326.548 228.529 324.843C227.549 323.137 227.032 321.205 227.031 319.238V257.772C227.031 253.772 229.164 250.038 232.618 248.065L285.938 217.305C289.311 215.398 293.791 215.398 297.137 217.305L350.391 248.078C352.089 249.066 353.499 250.483 354.479 252.186C355.46 253.889 355.976 255.82 355.977 257.785V319.251C355.977 323.238 353.831 326.958 350.391 328.958L297.137 359.718C295.43 360.701 293.494 361.216 291.524 361.211" fill="#689F63"/>
<path d="M307.983 318.885C284.676 318.885 279.79 308.186 279.79 299.213C279.79 298.359 280.478 297.679 281.332 297.679H288.212C288.972 297.679 289.612 298.233 289.732 298.983C290.772 305.994 293.865 309.53 307.959 309.53C319.185 309.53 323.959 306.994 323.959 301.041C323.959 297.614 322.599 295.067 305.159 293.361C290.572 291.921 281.559 288.707 281.559 277.041C281.559 266.294 290.625 259.894 305.812 259.894C322.865 259.894 331.319 265.814 332.385 278.534C332.403 278.748 332.376 278.963 332.307 279.166C332.237 279.369 332.126 279.555 331.981 279.713C331.835 279.871 331.659 279.997 331.462 280.083C331.266 280.17 331.053 280.214 330.839 280.214H323.919C323.199 280.214 322.572 279.707 322.425 279.014C320.759 271.641 316.732 269.281 305.785 269.281C293.532 269.281 292.105 273.547 292.105 276.747C292.105 280.627 293.785 281.761 310.319 283.947C326.692 286.121 334.465 289.187 334.465 300.694C334.465 312.294 324.785 318.947 307.905 318.947L307.983 318.885ZM372.785 253.761H374.572C376.039 253.761 376.319 252.734 376.319 252.134C376.319 250.561 375.239 250.561 374.639 250.561H372.799L372.785 253.761ZM370.612 248.721H374.572C375.932 248.721 378.599 248.721 378.599 251.761C378.599 253.881 377.239 254.321 376.425 254.588C378.012 254.694 378.119 255.734 378.332 257.201C378.439 258.121 378.612 259.708 378.932 260.241H376.492C376.425 259.708 376.052 256.774 376.052 256.614C375.892 255.961 375.665 255.641 374.852 255.641H372.839V260.254H370.612V248.721ZM365.852 254.454C365.852 259.228 369.705 263.094 374.439 263.094C379.212 263.094 383.065 259.148 383.065 254.454C383.065 249.668 379.159 245.868 374.425 245.868C369.759 245.868 365.839 249.614 365.839 254.441L365.852 254.454ZM384.719 254.481C384.719 260.134 380.092 264.748 374.452 264.748C368.852 264.748 364.185 260.188 364.185 254.481C364.185 248.668 368.959 244.214 374.452 244.214C379.985 244.214 384.705 248.681 384.705 254.481" fill="#689F63"/>
<path fill-rule="evenodd" clip-rule="evenodd" d="M126.581 120.733C126.581 118.28 125.288 116.026 123.17 114.806L66.6959 82.3131C65.7513 81.7627 64.6846 81.4557 63.5919 81.4198H63.0079C61.9252 81.4598 60.8572 81.7531 59.8879 82.3131L3.41599 114.806C2.37768 115.411 1.51587 116.276 0.916496 117.317C0.31712 118.358 0.00111931 119.538 0 120.74L0.124 208.26C0.124 209.473 0.750665 210.606 1.81733 211.206C2.85733 211.846 4.16399 211.846 5.20399 211.206L38.7773 191.98C40.8973 190.718 42.1906 188.489 42.1906 186.06V145.173C42.1882 143.976 42.5019 142.799 43.1001 141.762C43.6983 140.725 44.5597 139.864 45.5973 139.266L59.8906 131.034C60.9272 130.432 62.105 130.116 63.3039 130.117C64.4719 130.117 65.6639 130.418 66.6959 131.033L80.9825 139.262C83.0972 140.476 84.3958 142.729 84.3958 145.169V186.053C84.3958 188.48 85.7065 190.72 87.8158 191.973L121.368 211.186C121.884 211.494 122.474 211.656 123.074 211.656C123.675 211.656 124.265 211.494 124.781 211.186C125.295 210.885 125.721 210.454 126.018 209.937C126.314 209.421 126.471 208.835 126.472 208.24L126.581 120.733ZM393.071 166.301C393.071 166.91 392.747 167.474 392.218 167.776L372.821 178.957C372.562 179.106 372.268 179.184 371.969 179.184C371.671 179.184 371.377 179.106 371.118 178.957L351.718 167.776C351.185 167.473 350.865 166.909 350.865 166.301V143.906C350.865 143.296 351.185 142.733 351.705 142.426L371.091 131.226C371.625 130.92 372.278 130.92 372.811 131.226L392.211 142.426C392.745 142.733 393.065 143.296 393.065 143.906L393.071 166.301ZM398.311 0.431942C397.791 0.142795 397.205 -0.00594805 396.611 0.000364532C396.016 0.00667712 395.433 0.167828 394.919 0.467942C393.879 1.08127 393.237 2.20127 393.237 3.4146V90.0811C393.237 90.5001 393.127 90.912 392.918 91.275C392.709 91.6381 392.408 91.9396 392.045 92.1492C391.682 92.3587 391.27 92.469 390.851 92.4687C390.432 92.4685 390.021 92.3578 389.658 92.1478L375.511 83.9998C374.475 83.401 373.3 83.0858 372.103 83.0858C370.907 83.0858 369.731 83.401 368.695 83.9998L312.202 116.604C311.166 117.2 310.305 118.058 309.705 119.093C309.106 120.127 308.79 121.301 308.789 122.497V187.724C308.789 190.164 310.091 192.404 312.202 193.63L368.695 226.257C370.805 227.47 373.402 227.47 375.518 226.257L432.011 193.617C434.118 192.39 435.425 190.15 435.425 187.71V25.1506C435.423 23.9351 435.097 22.7422 434.48 21.6946C433.864 20.647 432.979 19.7827 431.918 19.1906L398.311 0.431942ZM586.435 143.317C587.466 142.717 588.323 141.856 588.917 140.822C589.512 139.787 589.826 138.615 589.826 137.421V121.613C589.826 119.181 588.532 116.937 586.43 115.713L530.296 83.1265C529.257 82.5239 528.077 82.2066 526.876 82.2066C525.675 82.2066 524.495 82.5239 523.456 83.1265L466.976 115.726C464.856 116.953 463.563 119.193 463.563 121.633V186.833C463.563 189.286 464.883 191.553 467.003 192.766L523.123 224.753C525.19 225.94 527.723 225.953 529.816 224.793L563.763 205.926C564.83 205.326 565.51 204.193 565.51 202.966C565.51 201.74 564.856 200.593 563.79 199.993L506.963 167.38C505.896 166.78 505.243 165.646 505.243 164.433V143.98C505.243 142.758 505.883 141.633 506.95 141.025L524.63 130.825C525.683 130.212 526.976 130.212 528.03 130.825L545.723 141.025C546.776 141.625 547.43 142.758 547.43 143.972V160.052C547.43 161.265 548.083 162.398 549.136 163.012C550.19 163.612 551.496 163.612 552.55 162.998L586.435 143.317Z" fill="#333333"/>
<path fill-rule="evenodd" clip-rule="evenodd" d="M526.05 140.266C526.249 140.15 526.474 140.089 526.704 140.089C526.933 140.089 527.159 140.15 527.357 140.266L538.197 146.52C538.602 146.754 538.85 147.186 538.85 147.653V160.173C538.85 160.64 538.602 161.072 538.197 161.306L527.357 167.56C527.159 167.676 526.933 167.737 526.704 167.737C526.474 167.737 526.249 167.676 526.05 167.56L515.217 161.306C515.016 161.193 514.848 161.029 514.731 160.83C514.614 160.631 514.551 160.404 514.55 160.173V147.653C514.55 147.186 514.79 146.754 515.204 146.52L526.05 140.266Z" fill="#689F63"/>
<path d="M337.409 110.369L179.123 32.7826L97.9632 198.348L256.246 275.938L337.409 110.369Z" fill="url(#paint0_linear)"/>
<path d="M87.6859 133.317L199.452 284.587L347.265 175.38L235.492 24.1133L87.6859 133.317Z" fill="url(#paint1_linear)"/>
<path d="M158.286 82.5572V225.797H280.53V82.5572H158.286Z" fill="url(#paint2_linear)"/>
</g>
<defs>
<linearGradient id="paint0_linear" x1="258.219" y1="71.4538" x2="177.064" y2="237.008" gradientUnits="userSpaceOnUse">
<stop offset="0.3" stop-color="#3E863D"/>
<stop offset="0.5" stop-color="#55934F"/>
<stop offset="0.8" stop-color="#5AAD45"/>
</linearGradient>
<linearGradient id="paint1_linear" x1="144.239" y1="209.819" x2="292.058" y2="100.599" gradientUnits="userSpaceOnUse">
<stop offset="0.57" stop-color="#3E863D"/>
<stop offset="0.72" stop-color="#619857"/>
<stop offset="1" stop-color="#76AC64"/>
</linearGradient>
<linearGradient id="paint2_linear" x1="158.327" y1="154.181" x2="280.553" y2="154.181" gradientUnits="userSpaceOnUse">
<stop offset="0.16" stop-color="#6BBF47"/>
<stop offset="0.38" stop-color="#79B461"/>
<stop offset="0.47" stop-color="#75AC64"/>
<stop offset="0.7" stop-color="#659E5A"/>
<stop offset="0.9" stop-color="#3E863D"/>
</linearGradient>
<clipPath id="clip0">
<rect width="589.827" height="361.238" fill="white"/>
</clipPath>
</defs>
</svg>
