<svg width="819" height="332" viewBox="0 0 819 332" fill="none" xmlns="http://www.w3.org/2000/svg">
<rect width="818.63" height="331.21" fill="white"/>
<path d="M290.85 199.21C280.58 199.21 270.12 194.96 263.57 186.63V231.63H243V120.54H261.6L262.31 132.76C268.69 123.37 280.02 118.41 290.83 118.41C311.56 118.41 326.83 135.78 326.83 158.81C326.83 181.84 311.58 199.22 290.85 199.21ZM284.48 133.66C272.43 133.66 262.69 143.05 262.69 158.82C262.69 174.59 272.43 184 284.48 184C296.53 184 306.27 174.61 306.27 158.84C306.27 143.07 296.53 133.66 284.48 133.66V133.66Z" fill="#130754"/>
<path d="M404.36 197.1L403.65 184.88C397.27 194.27 385.93 199.23 375.12 199.22C354.39 199.22 339.12 181.86 339.12 158.83C339.12 135.8 354.36 118.43 375.12 118.44C385.93 118.44 397.27 123.44 403.65 132.79L404.36 120.57H423V197.1H404.36ZM381.51 133.67C369.46 133.67 359.72 143.06 359.71 158.83C359.7 174.6 369.45 184 381.5 184C393.55 184 403.3 174.61 403.3 158.84C403.3 143.07 393.56 133.67 381.51 133.67Z" fill="#130754"/>
<path d="M494.87 197.11V154.77C494.87 139.89 489.74 134.93 480.35 134.93C470.6 134.93 459.97 143.78 459.97 154.41V197.11H439.41V120.57H458.2L459.09 134.75C464.23 125 475.74 118.45 487.44 118.45C507.81 118.45 515.44 132.63 515.44 151.58V197.12L494.87 197.11Z" fill="#130754"/>
<path d="M590.77 197.13L590.06 184.9C583.68 194.29 572.34 199.25 561.54 199.25C540.81 199.25 525.54 181.88 525.54 158.85C525.54 135.82 540.78 118.46 561.54 118.46C571.81 118.46 582.26 122.72 588.82 131.04V90.83H609.38V197.13H590.77ZM567.92 133.7C555.92 133.7 546.13 143.09 546.13 158.85C546.13 174.61 555.87 184 567.92 184C579.97 184 589.71 174.62 589.71 158.85C589.71 143.08 580 133.7 567.92 133.7Z" fill="#130754"/>
<path d="M686.6 197.14L685.89 184.92C679.51 194.31 668.17 199.26 657.36 199.26C636.63 199.26 621.36 181.9 621.36 158.86C621.36 135.82 636.6 118.47 657.36 118.47C668.17 118.47 679.51 123.47 685.89 132.83L686.6 120.6H705.2V197.13L686.6 197.14ZM663.75 133.71C651.75 133.71 641.96 143.1 641.95 158.87C641.94 174.64 651.7 184 663.74 184C675.78 184 685.54 174.61 685.54 158.84C685.54 143.07 675.8 133.71 663.75 133.71V133.71Z" fill="#130754"/>
<path d="M750.73 199.63C739.918 199.54 729.33 196.538 720.08 190.94L723.45 176.77C729.65 180.49 739.04 185.28 750.38 185.28C758.53 185.28 764.2 182.8 764.2 176.42C764.2 170.93 758.35 168.98 747.9 166.5C729.12 162.42 722.39 152.5 722.39 141.69C722.39 129.64 731.78 118.31 752.51 118.31C765.09 118.31 776.08 123.8 778.51 125.22L775.14 138.69C768.446 134.66 760.812 132.46 753 132.31C744.68 132.31 740.6 135.14 740.6 139.75C740.6 144.88 745.92 147.19 754.06 149.14C774.26 153.39 782.41 162.78 782.41 173.06C782.45 189.53 770.4 199.63 750.73 199.63Z" fill="#130754"/>
<path d="M98.97 68.42H74.88V118.44H98.97V68.42Z" fill="#130754"/>
<path d="M98.97 171.17H74.88V221.19H98.97V171.17Z" fill="#130754"/>
<path d="M98.97 133.04H74.88V156.64H98.97V133.04Z" fill="#FFCA00"/>
<path d="M60.28 109.55H36.19V275.82H60.28V109.55Z" fill="#130754"/>
<path d="M136.87 212.44H112.78V262.46H136.87V212.44Z" fill="#130754"/>
<path d="M136.87 109.61H112.78V159.63H136.87V109.61Z" fill="#130754"/>
<path d="M136.87 174.23H112.78V197.83H136.87V174.23Z" fill="#E70488"/>
<path d="M174.76 55.39H150.67V221.66H174.76V55.39Z" fill="#130754"/>
</svg>
