<svg width="119" height="31" viewBox="0 0 119 31" fill="none" xmlns="http://www.w3.org/2000/svg">
<g clip-path="url(#clip0)">
<rect width="119" height="31" fill="white"/>
<path fill-rule="evenodd" clip-rule="evenodd" d="M25.979 4.72701H8.75101V13.365H17.228C17.53 13.365 17.775 13.61 17.775 13.912V22.272H26.526V5.275C26.5261 5.20309 26.5121 5.13185 26.4847 5.06537C26.4572 4.99889 26.417 4.93847 26.3661 4.88757C26.3153 4.83667 26.255 4.79629 26.1886 4.76874C26.1221 4.74119 26.0509 4.727 25.979 4.72701V4.72701Z" fill="#8E75FF"/>
<path opacity="0.405" fill-rule="evenodd" clip-rule="evenodd" d="M8.75002 4.72701V13.365H0.668015C0.613713 13.3649 0.560664 13.3487 0.515603 13.3184C0.470541 13.2881 0.4355 13.2451 0.414927 13.1948C0.394354 13.1446 0.389177 13.0893 0.400053 13.0361C0.41093 12.9829 0.437369 12.9342 0.476015 12.896L8.75002 4.72701ZM18.241 30.45C18.2025 30.4878 18.1537 30.5134 18.1008 30.5236C18.0478 30.5338 17.993 30.5281 17.9432 30.5073C17.8935 30.4865 17.851 30.4514 17.8211 30.4065C17.7911 30.3617 17.7751 30.3089 17.775 30.255V22.272H26.526L18.241 30.449V30.45Z" fill="#8E75FF"/>
<path opacity="0.405" d="M8.75 13.365H17.502C17.652 13.365 17.775 13.487 17.775 13.638V22.272H9.298C9.15293 22.272 9.0138 22.2144 8.91121 22.1118C8.80863 22.0092 8.751 21.8701 8.751 21.725V13.365H8.75Z" fill="#8E75FF"/>
<path fill-rule="evenodd" clip-rule="evenodd" d="M114.771 4.18201C115.26 4.66601 115.837 4.90701 116.503 4.90701C117.19 4.90701 117.778 4.66601 118.267 4.18201C118.756 3.69801 119 3.12801 119 2.46901C119 1.81101 118.756 1.23501 118.267 0.741007C118.04 0.502797 117.766 0.314038 117.462 0.186537C117.159 0.0590357 116.832 -0.00446472 116.503 7.17294e-06C115.837 7.17294e-06 115.26 0.247007 114.771 0.740007C114.282 1.23501 114.038 1.81001 114.038 2.47001C114.038 3.12801 114.282 3.69801 114.771 4.18201V4.18201ZM61.711 10.494C61.711 10.544 61.669 10.586 61.618 10.586H58.183V17.006C58.183 17.541 58.319 17.932 58.589 18.179C58.859 18.426 59.255 18.564 59.775 18.595C60.251 18.624 60.831 18.622 61.516 18.59L61.613 18.585C61.6255 18.5843 61.638 18.5862 61.6497 18.5905C61.6615 18.5948 61.6722 18.6015 61.6813 18.6101C61.6904 18.6187 61.6976 18.6291 61.7025 18.6406C61.7075 18.6521 61.71 18.6645 61.71 18.677V22.108C61.7101 22.1308 61.7018 22.1528 61.6867 22.1698C61.6715 22.1868 61.6506 22.1975 61.628 22.2L61.565 22.207C58.875 22.49 56.972 22.227 55.858 21.419C54.724 20.596 54.158 19.125 54.158 17.006V10.586H51.534C51.5096 10.586 51.4862 10.5763 51.4689 10.5591C51.4517 10.5418 51.442 10.5184 51.442 10.494V6.85101C51.442 6.80101 51.483 6.75901 51.534 6.75901H54.157V4.21201C54.157 4.13801 54.201 4.07201 54.268 4.04201L58.054 2.39501C58.068 2.38864 58.0834 2.38591 58.0988 2.38704C58.1142 2.38818 58.129 2.39316 58.1419 2.40152C58.1549 2.40988 58.1655 2.42136 58.1728 2.4349C58.1802 2.44843 58.184 2.4636 58.184 2.47901V6.75901H61.618C61.668 6.75901 61.71 6.80001 61.71 6.85101V10.494H61.711ZM69.011 9.41401C69.385 8.42601 70.004 7.68501 70.867 7.19101C71.7184 6.70627 72.6813 6.45125 73.661 6.45101C73.712 6.45101 73.754 6.49201 73.754 6.54401V10.729C73.754 10.75 73.7495 10.7707 73.741 10.7898C73.7325 10.8089 73.7201 10.8261 73.7045 10.8401C73.689 10.8541 73.6707 10.8647 73.6508 10.8713C73.6309 10.8778 73.6098 10.8801 73.589 10.878C72.428 10.774 71.385 11.027 70.461 11.636C69.494 12.273 69.011 13.333 69.011 14.815V22.099C69.011 22.1112 69.0086 22.1232 69.0039 22.1344C68.9992 22.1457 68.9924 22.1559 68.9837 22.1644C68.9751 22.173 68.9648 22.1797 68.9535 22.1843C68.9422 22.1889 68.9302 22.1911 68.918 22.191H65.076C65.0516 22.191 65.0282 22.1813 65.0109 22.1641C64.9937 22.1468 64.984 22.1234 64.984 22.099V6.85001C64.984 6.80001 65.025 6.75801 65.076 6.75801H68.918C68.968 6.75801 69.01 6.79901 69.01 6.85001V9.41201L69.011 9.41401ZM88.047 6.75901C88.0348 6.75887 88.0228 6.76116 88.0115 6.76572C88.0002 6.77029 87.9899 6.77704 87.9813 6.7856C87.9726 6.79415 87.9658 6.80434 87.9611 6.81557C87.9564 6.8268 87.954 6.83884 87.954 6.85101V8.58101C86.748 7.07801 85.052 6.32701 82.867 6.32701C80.787 6.32701 79.002 7.11401 77.515 8.68801C76.027 10.262 75.283 12.191 75.283 14.475C75.283 16.759 76.027 18.688 77.515 20.262C79.002 21.836 80.787 22.623 82.867 22.623C85.052 22.623 86.747 21.872 87.954 20.37V22.099C87.954 22.149 87.996 22.191 88.047 22.191H91.888C91.939 22.191 91.981 22.15 91.981 22.099V6.85001C91.981 6.83784 91.9786 6.8258 91.9739 6.81457C91.9692 6.80334 91.9624 6.79315 91.9537 6.7846C91.9451 6.77604 91.9348 6.76929 91.9235 6.76472C91.9122 6.76016 91.9002 6.75787 91.888 6.75801H88.047V6.75901ZM80.527 17.623C81.338 18.426 82.367 18.827 83.617 18.827C84.865 18.827 85.9 18.42 86.722 17.607C87.544 16.795 87.954 15.751 87.954 14.475C87.954 13.199 87.544 12.155 86.722 11.342C85.9 10.53 84.865 10.123 83.616 10.123C82.368 10.123 81.338 10.53 80.526 11.343C79.716 12.155 79.309 13.199 79.309 14.475C79.309 15.751 79.715 16.8 80.527 17.623V17.623ZM109.877 8.68801C108.389 7.11401 106.594 6.32701 104.493 6.32701C102.308 6.32701 100.623 7.07801 99.437 8.58001V6.85101C99.437 6.82661 99.4273 6.80321 99.4101 6.78595C99.3928 6.7687 99.3694 6.75901 99.345 6.75901H95.503C95.4786 6.75901 95.4552 6.7687 95.4379 6.78595C95.4207 6.80321 95.411 6.82661 95.411 6.85101V28.271C95.411 28.322 95.452 28.364 95.503 28.364H99.345C99.395 28.364 99.437 28.322 99.437 28.271V20.37C100.623 21.872 102.308 22.623 104.493 22.623C106.594 22.623 108.389 21.836 109.877 20.262C111.364 18.688 112.108 16.759 112.108 14.475C112.108 12.191 111.364 10.262 109.877 8.68801V8.68801ZM100.654 17.623C101.466 18.426 102.495 18.827 103.744 18.827C104.992 18.827 106.027 18.42 106.849 17.607C107.671 16.795 108.082 15.751 108.082 14.475C108.082 13.199 107.671 12.155 106.849 11.342C106.027 10.53 104.992 10.123 103.744 10.123C102.495 10.123 101.466 10.53 100.654 11.343C99.843 12.155 99.437 13.199 99.437 14.475C99.437 15.751 99.843 16.8 100.654 17.623V17.623ZM114.598 22.191C114.574 22.191 114.55 22.1813 114.533 22.1641C114.516 22.1468 114.506 22.1234 114.506 22.099V6.85001C114.506 6.80001 114.547 6.75801 114.598 6.75801H118.44C118.491 6.75801 118.532 6.79901 118.532 6.85001V22.1C118.532 22.1244 118.522 22.1478 118.505 22.1651C118.488 22.1823 118.464 22.192 118.44 22.192H114.598V22.191ZM42.813 12.145C42.261 11.888 41.986 11.553 41.986 11.142C41.986 10.751 42.157 10.442 42.501 10.216C42.844 9.99001 43.276 9.87601 43.796 9.87601C44.793 9.87601 45.546 10.261 46.056 11.03C46.073 11.0561 46.0986 11.0754 46.1284 11.0846C46.1582 11.0937 46.1903 11.0921 46.219 11.08L49.617 9.59301C49.6287 9.58774 49.6393 9.58006 49.6479 9.57047C49.6565 9.56089 49.6629 9.5496 49.6669 9.53734C49.6709 9.52509 49.6722 9.51214 49.6708 9.49934C49.6695 9.48653 49.6654 9.47416 49.659 9.46301C49.6199 9.39781 49.5799 9.33314 49.539 9.26901C48.958 8.36401 48.205 7.68901 47.26 7.17601C46.22 6.61001 45.065 6.32701 43.796 6.32701C42.11 6.32701 40.701 6.76401 39.566 7.63901C38.433 8.51301 37.866 9.71201 37.866 11.234C37.866 12.243 38.142 13.081 38.693 13.75C39.2255 14.405 39.9192 14.9102 40.706 15.216C41.496 15.524 42.287 15.782 43.078 15.987C43.868 16.193 44.54 16.425 45.091 16.682C45.642 16.939 45.918 17.273 45.918 17.685C45.918 18.57 45.2 19.012 43.765 19.012C42.398 19.012 41.451 18.512 40.924 17.514C40.9028 17.4719 40.8665 17.4395 40.8222 17.4234C40.778 17.4072 40.7293 17.4085 40.686 17.427L37.298 18.912C37.2867 18.917 37.2765 18.9241 37.268 18.9331C37.2596 18.9421 37.253 18.9527 37.2487 18.9643C37.2444 18.9758 37.2425 18.9881 37.2431 19.0005C37.2436 19.0128 37.2467 19.0249 37.252 19.036L37.29 19.113C38.474 21.453 40.632 22.623 43.765 22.623C45.554 22.623 47.047 22.196 48.243 21.343C49.44 20.488 50.038 19.269 50.038 17.685C50.038 16.635 49.762 15.761 49.211 15.061C48.6915 14.3855 47.9946 13.8676 47.198 13.565C46.4227 13.2714 45.6306 13.0239 44.826 12.824C44.035 12.628 43.364 12.402 42.813 12.144V12.145Z" fill="#1D1B84"/>
</g>
<defs>
<clipPath id="clip0">
<rect width="119" height="31" fill="white"/>
</clipPath>
</defs>
</svg>
